# xmcd CD database file
#
# Track frame offsets:
#	150
#	18650
#	41510
#	71485
#	91182
#	114455
#	135112
#	155407
#	175165
#	200595
#	219565
#	235910
#
# Disc length: 3449 seconds
#
# Revision: 1
# Processed by: cddbd v1.5.2PL0 Copyright (c) Steve Scherf et al.
# Submitted via: CDex 1.70beta2
#
DISCID=9b0d770c
DTITLE=Lalah Hathaway - Self Portrait
DYEAR=2008
DGENRE=Soul
TTITLE0=Let Go
TTITLE1=Breathe
TTITLE2=On Your Own
TTITLE3=For Always
TTITLE4=That Was Then
TTITLE5=Learn To Swim
TTITLE6=1 Mile
TTITLE7=Little Girl
TTITLE8=What Goes Around
TTITLE9=Naked Truth
TTITLE10=UDO
TTITLE11=Tragic Inevitability
EXTD=YEAR: 2008
EXTT0=
EXTT1=
EXTT2=
EXTT3=
EXTT4=
EXTT5=
EXTT6=
EXTT7=
EXTT8=
EXTT9=
EXTT10=
EXTT11=
PLAYORDER=
